<svg width="24" height="24" viewBox="0 0 24 24" fill="none" xmlns="http://www.w3.org/2000/svg">
<g filter="url(#filter0_b_0_230)">
<path fill-rule="evenodd" clip-rule="evenodd" d="M5.00002 21.4058V5.37495C5.00002 4.74507 5.25023 4.14099 5.69562 3.69561C6.14101 3.25022 6.74509 3 7.37496 3H16.8747C17.5046 3 18.1087 3.25022 18.5541 3.69561C18.9995 4.14099 19.2497 4.74507 19.2497 5.37495V21.4058C19.2498 21.5089 19.223 21.6103 19.172 21.6999C19.121 21.7895 19.0476 21.8643 18.9589 21.9169C18.8702 21.9695 18.7694 21.9981 18.6663 21.9999C18.5632 22.0017 18.4614 21.9766 18.371 21.9271L12.1249 18.5191L5.87875 21.9271C5.78829 21.9766 5.68652 22.0017 5.58343 21.9999C5.48034 21.9981 5.37949 21.9695 5.29082 21.9169C5.20214 21.8643 5.1287 21.7895 5.07771 21.6999C5.02672 21.6103 4.99994 21.5089 5.00002 21.4058ZM9.74991 10.1248C9.59244 10.1248 9.44142 10.1874 9.33007 10.2987C9.21872 10.4101 9.15617 10.5611 9.15617 10.7186C9.15617 10.876 9.21872 11.0271 9.33007 11.1384C9.44142 11.2498 9.59244 11.3123 9.74991 11.3123H14.4998C14.6573 11.3123 14.8083 11.2498 14.9196 11.1384C15.031 11.0271 15.0935 10.876 15.0935 10.7186C15.0935 10.5611 15.031 10.4101 14.9196 10.2987C14.8083 10.1874 14.6573 10.1248 14.4998 10.1248H9.74991Z" fill="#C4C4C4" fill-opacity="0.8"/>
</g>
<defs>
<filter id="filter0_b_0_230" x="-20" y="-20" width="64" height="64" filterUnits="userSpaceOnUse" color-interpolation-filters="sRGB">
<feFlood flood-opacity="0" result="BackgroundImageFix"/>
<feGaussianBlur in="BackgroundImageFix" stdDeviation="10"/>
<feComposite in2="SourceAlpha" operator="in" result="effect1_backgroundBlur_0_230"/>
<feBlend mode="normal" in="SourceGraphic" in2="effect1_backgroundBlur_0_230" result="shape"/>
</filter>
</defs>
</svg>
