<svg width="24" height="24" viewBox="0 0 24 24" fill="none" xmlns="http://www.w3.org/2000/svg">
<g filter="url(#filter0_b_0_235)">
<path d="M17.75 12.75C18.3467 12.75 18.919 12.9871 19.341 13.409C19.7629 13.831 20 14.4033 20 15V15.75C20 18.7065 17.21 21.75 12.5 21.75C7.79 21.75 5 18.7065 5 15.75V15C5 14.4033 5.23705 13.831 5.65901 13.409C6.08097 12.9871 6.65326 12.75 7.25 12.75H17.75ZM12.5 3C13.594 3 14.6432 3.4346 15.4168 4.20818C16.1904 4.98177 16.625 6.03098 16.625 7.125C16.625 8.21902 16.1904 9.26823 15.4168 10.0418C14.6432 10.8154 13.594 11.25 12.5 11.25C11.406 11.25 10.3568 10.8154 9.58318 10.0418C8.8096 9.26823 8.375 8.21902 8.375 7.125C8.375 6.03098 8.8096 4.98177 9.58318 4.20818C10.3568 3.4346 11.406 3 12.5 3Z" fill="#C4C4C4" fill-opacity="0.8"/>
<path d="M10 17H15" stroke="white" stroke-linecap="round" stroke-linejoin="round"/>
</g>
<defs>
<filter id="filter0_b_0_235" x="-20" y="-20" width="64" height="64" filterUnits="userSpaceOnUse" color-interpolation-filters="sRGB">
<feFlood flood-opacity="0" result="BackgroundImageFix"/>
<feGaussianBlur in="BackgroundImageFix" stdDeviation="10"/>
<feComposite in2="SourceAlpha" operator="in" result="effect1_backgroundBlur_0_235"/>
<feBlend mode="normal" in="SourceGraphic" in2="effect1_backgroundBlur_0_235" result="shape"/>
</filter>
</defs>
</svg>
